<svg width="24" height="24" viewBox="0 0 24 24" fill="none" xmlns="http://www.w3.org/2000/svg">
<path fill-rule="evenodd" clip-rule="evenodd" d="M8.09579 16.4698C8.34994 16.2821 8.65074 16.1589 8.97418 16.1165C9.49304 17.3015 10.6861 18.0996 12.0012 18.0996C13.3338 18.0996 14.51 17.3156 15.0282 16.1164C15.3508 16.1587 15.6512 16.2815 15.9052 16.4686C15.935 16.6873 16.1065 16.8611 16.324 16.8946C16.4104 17.016 16.4836 17.149 16.5411 17.2921L17.5421 19.7861C17.6201 19.9811 17.8081 20.1001 18.0061 20.1001C18.0681 20.1001 18.1311 20.0881 18.1931 20.0641C18.4481 19.9611 18.5721 19.6701 18.4701 19.4141L17.4691 16.9201C17.3329 16.5802 17.1388 16.2773 16.9006 16.0208V8.79939C16.9006 6.09839 14.7026 3.90039 12.0016 3.90039C9.29855 3.90039 7.10055 6.09839 7.10055 8.79939V16.0232C6.86264 16.28 6.66889 16.5831 6.53315 16.9231L5.53715 19.4141C5.43515 19.6711 5.55915 19.9621 5.81515 20.0641C5.87615 20.0891 5.93915 20.1001 6.00115 20.1001C6.19915 20.1001 6.38715 19.9811 6.46515 19.7861L7.46115 17.2941C7.51871 17.1502 7.59211 17.0164 7.67891 16.8943C7.89582 16.8603 8.06567 16.6874 8.09579 16.4698ZM15.9006 15.3238V8.79939C15.9006 6.64939 14.1516 4.90039 12.0016 4.90039C9.85055 4.90039 8.10055 6.64939 8.10055 8.79939V15.3246C8.44904 15.1789 8.83006 15.1001 9.22615 15.1001H9.29631C9.31108 15.0994 9.32578 15.0994 9.34037 15.1001H10.0032C10.1682 15.1001 10.3032 14.9661 10.3032 14.8021L10.3059 14.0313C9.34457 13.4539 8.70035 12.4012 8.70035 11.2004V8.40039C8.70035 8.26739 8.75335 8.14039 8.84635 8.04639L11.2474 5.64739C11.3904 5.50339 11.6064 5.46039 11.7924 5.53839C11.9784 5.61539 12.1004 5.79839 12.1004 6.00039C12.1004 7.04839 12.9534 7.90039 14.0014 7.90039H14.8014C15.0774 7.90039 15.3014 8.12439 15.3014 8.40039V11.2004C15.3014 12.3992 14.6587 13.4506 13.7002 14.0286L13.7041 14.8011C13.7041 14.9661 13.8391 15.1001 14.0041 15.1001H14.7771C15.1722 15.1001 15.5525 15.1786 15.9006 15.3238ZM12.7022 14.4255C12.4762 14.4745 12.2417 14.5004 12.0014 14.5004C11.7623 14.5004 11.5292 14.4749 11.3045 14.4265L11.3032 14.8051C11.3012 15.4848 10.7713 16.0455 10.1023 16.0963C10.5241 16.7092 11.2322 17.0996 12.0012 17.0996C12.7822 17.0996 13.4849 16.7146 13.9036 16.0962C13.2353 16.0449 12.706 15.4853 12.7041 14.8041L12.7022 14.4255ZM9.70035 11.2004V8.60739L11.2864 7.02239C11.7004 8.11839 12.7614 8.90039 14.0014 8.90039H14.3014V11.2004C14.3014 12.4684 13.2694 13.5004 12.0014 13.5004C10.7324 13.5004 9.70035 12.4684 9.70035 11.2004Z" fill="#39BBB1"/>
<path d="M2.46235 18.2731C2.50084 18.1774 2.54866 18.0876 2.60451 18.0047C2.78458 17.9592 2.92583 17.8158 2.96836 17.6345C3.13186 17.5204 3.31938 17.441 3.52013 17.4039C3.78958 17.9764 4.25116 18.4439 4.83005 18.7181C4.89905 18.7511 4.97205 18.7661 5.04405 18.7661C5.23105 18.7661 5.41005 18.6611 5.49605 18.4801C5.61405 18.2301 5.50805 17.9321 5.25805 17.8141C5.02527 17.7037 4.82232 17.5445 4.66135 17.3504C5.16447 17.2332 5.54164 16.7821 5.54335 16.2441L5.5439 16.0614C5.69263 16.0865 5.84539 16.0996 6.00115 16.0996C6.27715 16.0996 6.50115 15.8756 6.50115 15.5996C6.50115 15.3236 6.27715 15.0996 6.00115 15.0996C5.04115 15.0996 4.26115 14.3196 4.26115 13.3606V11.3276L5.39415 10.1946C5.51315 10.4566 5.67915 10.6986 5.88915 10.9106C6.08215 11.1046 6.39815 11.1076 6.59615 10.9126C6.79115 10.7176 6.79315 10.4016 6.59815 10.2046C6.32915 9.93359 6.18115 9.57759 6.18115 9.20059C6.18115 8.99859 6.05915 8.81559 5.87215 8.73859C5.68715 8.66059 5.47115 8.70359 5.32715 8.84759L3.40715 10.7666C3.31315 10.8606 3.26115 10.9876 3.26115 11.1206V13.3606C3.26115 14.3363 3.77427 15.1946 4.54502 15.6799L4.54335 16.2411C4.54335 16.3181 4.47935 16.3801 4.40235 16.3801H3.78135C3.503 16.3801 3.23348 16.4268 2.98155 16.5144V11.441C2.98155 9.77499 4.33555 8.41999 6.00155 8.41999C6.16055 8.41999 6.31655 8.43299 6.47055 8.45699C6.72555 8.49199 6.99855 8.30999 7.03955 8.03699C7.08055 7.76399 6.89255 7.50899 6.61955 7.46699C6.41855 7.43699 6.21055 7.41999 6.00155 7.41999C3.78455 7.41999 1.98155 9.22399 1.98155 11.441V17.1801C1.7952 17.3881 1.64279 17.631 1.53435 17.9021L0.737351 19.8941C0.635351 20.1511 0.759351 20.4421 1.01535 20.5441C1.07635 20.5691 1.13935 20.5801 1.20135 20.5801C1.39935 20.5801 1.58735 20.4611 1.66535 20.2661L2.46235 18.2731Z" fill="#39BBB1"/>
<path d="M21.0217 16.5135C20.77 16.4262 20.5008 16.3796 20.2229 16.3796H19.6039C19.5269 16.3796 19.4639 16.3176 19.4639 16.2406L19.4612 15.6774C20.2305 15.1917 20.7422 14.3344 20.7422 13.3601V11.1201C20.7422 10.8441 20.5191 10.6201 20.2422 10.6201H19.6021C18.8181 10.6201 18.1812 9.98309 18.1812 9.20009C18.1812 8.92409 17.9571 8.70009 17.6812 8.70009C17.4042 8.70009 17.1812 8.92409 17.1812 9.20009C17.1812 10.5351 18.2672 11.6201 19.6021 11.6201H19.7422V13.3601C19.7422 14.3191 18.9612 15.0991 18.0012 15.0991C17.7252 15.0991 17.5012 15.3231 17.5012 15.5991C17.5012 15.8751 17.7252 16.0991 18.0012 16.0991C18.1585 16.0991 18.3128 16.0858 18.463 16.0602L18.4639 16.2446C18.4656 16.7806 18.8405 17.2309 19.3419 17.3492C19.1791 17.5457 18.9734 17.7064 18.7383 17.8165C18.4883 17.9345 18.3804 18.2315 18.4974 18.4815C18.5834 18.6635 18.7634 18.7695 18.9504 18.7695C19.0214 18.7695 19.0944 18.7545 19.1624 18.7225C19.7449 18.4488 20.2119 17.9789 20.4829 17.4032C20.6835 17.4401 20.871 17.5191 21.0346 17.6328C21.0769 17.8152 21.2191 17.9594 21.4003 18.0046C21.4556 18.0869 21.5028 18.1758 21.5409 18.2706L22.3419 20.2656C22.4199 20.4606 22.6079 20.5796 22.8059 20.5796C22.8679 20.5796 22.9309 20.5676 22.9929 20.5436C23.2479 20.4406 23.3719 20.1496 23.2699 19.8936L22.4689 17.8976C22.3604 17.6274 22.208 17.3851 22.0217 17.1777V11.4405C22.0217 9.22349 20.2177 7.41949 18.0007 7.41949C17.7957 7.41949 17.5947 7.43549 17.3977 7.46449C17.1257 7.50549 16.9367 7.76049 16.9777 8.03349C17.0187 8.30849 17.2827 8.49149 17.5457 8.45449C17.6947 8.43149 17.8467 8.41949 18.0007 8.41949C19.6667 8.41949 21.0217 9.77449 21.0217 11.4405V16.5135Z" fill="#39BBB1"/>
</svg>
