<svg width="24" height="24" viewBox="0 0 24 24" fill="none" xmlns="http://www.w3.org/2000/svg">
<path fill-rule="evenodd" clip-rule="evenodd" d="M15.4484 16.8249L20.9006 17.6128L21.3315 14.6775L15.4484 16.8249ZM5.95378 19.0194C5.99031 19.1195 6.08318 19.1321 6.14787 19.1102L7.85291 18.4872C7.33431 17.6159 6.32839 17.139 5.32561 17.2872L5.95378 19.0194ZM10.208 7.65485L4.75483 6.85346L4.32596 9.78772L10.208 7.65485ZM19.6995 5.48233C19.6755 5.41554 19.6119 5.38424 19.5597 5.38424L17.8682 5.99676C18.3847 6.81902 19.3437 7.27398 20.3058 7.15398L19.6995 5.48233ZM21.8167 11.3248C20.9559 11.8413 20.48 12.8336 20.6199 13.826L22.3364 13.1999C22.4147 13.1707 22.4543 13.0841 22.4251 13.0048L21.8167 11.3248ZM3.21883 11.3446C3.20631 11.3707 3.19691 11.4114 3.21361 11.4583L3.82091 13.1331C4.70578 12.6291 5.20457 11.6315 5.07309 10.6277L3.30335 11.2674C3.25535 11.2851 3.23031 11.3195 3.21883 11.3446ZM4.96978 16.3053C6.51622 15.9828 8.09917 16.73 8.83274 18.1293L19.639 14.1849C19.3249 12.6448 20.07 11.0743 21.462 10.3439L20.6658 8.14841C20.4435 8.1912 20.2213 8.21833 20 8.21833C18.7166 8.21833 17.4988 7.51398 16.8717 6.35781L6.05709 10.2708C6.36178 11.8215 5.59274 13.3982 4.1757 14.1129L4.96978 16.3053ZM20.6814 5.12755L23.407 12.65C23.6293 13.2667 23.31 13.9522 22.6964 14.1787L22.4449 14.2705L21.9221 17.8413C21.8512 18.3202 21.438 18.6667 20.9674 18.6667C20.9225 18.6667 20.8766 18.6635 20.8307 18.6573L13.3792 17.5804L6.5037 20.09C6.37117 20.138 6.23448 20.162 6.0957 20.162C5.59483 20.162 5.14404 19.8458 4.97291 19.3742L2.23274 11.8142C2.12422 11.5168 2.13883 11.1933 2.27239 10.9032C2.40804 10.6152 2.647 10.395 2.94752 10.2865L3.21257 10.1915L3.73431 6.62389C3.81257 6.09902 4.29883 5.74215 4.82683 5.80894L12.1959 6.89207C12.2082 6.89382 12.2188 6.89854 12.2295 6.90326C12.2378 6.90695 12.2462 6.91065 12.2553 6.91294L19.1527 4.41381C19.7569 4.19259 20.4644 4.5265 20.6814 5.12755ZM10.2967 11.9901C10.1851 13.355 11.2067 14.5591 12.5736 14.6718C13.9479 14.7647 15.1437 13.7442 15.2553 12.395C15.368 11.029 14.3475 9.82591 12.9806 9.71321C12.9107 9.708 12.8418 9.70487 12.7729 9.70487C11.4905 9.70487 10.4032 10.7087 10.2967 11.9901ZM9.25639 11.9045C9.41605 9.98869 11.1242 8.51321 13.0661 8.67391C15.007 8.83356 16.4553 10.5417 16.2957 12.4805C16.1454 14.2993 14.6021 15.7236 12.7813 15.7236C12.6842 15.7236 12.5861 15.7195 12.488 15.7111C10.5472 15.5515 9.09778 13.8433 9.25639 11.9045Z" fill="#38BE62"/>
</svg>
