<svg width="16" height="20" viewBox="0 0 16 20" fill="none" xmlns="http://www.w3.org/2000/svg">
<path fill-rule="evenodd" clip-rule="evenodd" d="M5.00011 9V5.707L7.16011 3.547C7.60611 4.967 8.93511 6 10.5001 6H11.0001V9C11.0001 10.654 9.65411 12 8.00011 12C6.34611 12 5.00011 10.654 5.00011 9ZM8.0001 16.5C6.9221 16.5 5.9421 15.905 5.41311 15H5.50211C6.32711 15 7.00011 14.329 7.00211 13.505L7.00411 12.859C7.32511 12.942 7.6541 13 8.0001 13C10.2061 13 12.0001 11.206 12.0001 9V5.5C12.0001 5.224 11.7761 5 11.5001 5H10.5001C9.1221 5 8.0001 3.879 8.0001 2.5C8.0001 2.298 7.87811 2.115 7.69111 2.038C7.50411 1.961 7.29011 2.003 7.14611 2.146L4.14611 5.146C4.05311 5.24 4.00011 5.367 4.00011 5.5V9C4.00011 10.477 4.81311 11.755 6.00711 12.447C6.00711 12.449 6.00611 12.451 6.00611 12.453L6.00211 13.502C6.00211 13.776 5.77711 14 5.50211 14H4.53111C3.98711 14 3.46611 14.124 3.00011 14.351V6C3.00011 3.243 5.2431 1 8.0001 1C10.7571 1 13.0001 3.243 13.0001 6V10.5V11V11.5C13.0001 11.775 13.2251 12 13.5001 12C13.7751 12 14.0001 11.775 14.0001 11.5V11V10.5V6C14.0001 2.691 11.3091 0 8.0001 0C4.6911 0 2.00011 2.691 2.00011 6V15.092C1.70111 15.408 1.45111 15.777 1.28111 16.2L0.0361052 19.314C-0.0668948 19.57 0.0581052 19.861 0.314105 19.964C0.375105 19.988 0.438105 20 0.500105 20C0.698105 20 0.886105 19.881 0.964105 19.686L2.21011 16.571C2.56411 15.687 3.37511 15.098 4.31211 15.017C4.92211 16.493 6.37911 17.5 8.0001 17.5C8.2761 17.5 8.5001 17.276 8.5001 17C8.5001 16.724 8.2761 16.5 8.0001 16.5ZM12.5001 19C11.1221 19 10.0001 17.879 10.0001 16.5C10.0001 15.121 11.1221 14 12.5001 14C13.8781 14 15.0001 15.121 15.0001 16.5C15.0001 17.879 13.8781 19 12.5001 19ZM12.5001 13C10.5701 13 9.0001 14.57 9.0001 16.5C9.0001 18.43 10.5701 20 12.5001 20C14.4301 20 16.0001 18.43 16.0001 16.5C16.0001 14.57 14.4301 13 12.5001 13ZM13.0001 16H13.5001C13.7761 16 14.0001 16.224 14.0001 16.5C14.0001 16.776 13.7761 17 13.5001 17H13.0001V17.5C13.0001 17.776 12.7761 18 12.5001 18C12.2241 18 12.0001 17.776 12.0001 17.5V17H11.5001C11.2241 17 11.0001 16.776 11.0001 16.5C11.0001 16.224 11.2241 16 11.5001 16H12.0001V15.5C12.0001 15.224 12.2241 15 12.5001 15C12.7761 15 13.0001 15.224 13.0001 15.5V16Z" fill="#B9007E"/>
</svg>
