<svg width="24" height="24" viewBox="0 0 24 24" fill="none" xmlns="http://www.w3.org/2000/svg">
<path fill-rule="evenodd" clip-rule="evenodd" d="M19.1999 12.9601C18.67 12.9601 18.2399 12.529 18.2399 12.0001C18.2399 11.4711 18.67 11.0401 19.1999 11.0401C19.7298 11.0401 20.1599 11.4711 20.1599 12.0001C20.1599 12.529 19.7298 12.9601 19.1999 12.9601ZM13.63 5.76009C13.63 5.23113 14.0601 4.80009 14.59 4.80009C15.1199 4.80009 15.55 5.23113 15.55 5.76009C15.55 6.28905 15.1199 6.72009 14.59 6.72009C14.0601 6.72009 13.63 6.28905 13.63 5.76009ZM8.1196 19.2222C7.58968 19.2222 7.1596 18.7911 7.1596 18.2622C7.1596 17.7332 7.58968 17.3022 8.1196 17.3022C8.64952 17.3022 9.0796 17.7332 9.0796 18.2622C9.0796 18.7911 8.64952 19.2222 8.1196 19.2222ZM2.87992 10.1367C2.87992 9.60681 3.31 9.17673 3.83992 9.17673C4.36984 9.17673 4.79992 9.60681 4.79992 10.1367C4.79992 10.6657 4.36984 11.0967 3.83992 11.0967C3.31 11.0967 2.87992 10.6657 2.87992 10.1367ZM19.1999 10.0801C18.8102 10.0801 18.4482 10.1982 18.1449 10.3988L15.8303 7.21353C16.2431 6.86025 16.51 6.34377 16.51 5.76009C16.51 4.70121 15.6489 3.84009 14.59 3.84009C13.5321 3.84009 12.67 4.70121 12.67 5.76009C12.67 6.27753 12.8783 6.74505 13.2124 7.09065L8.36632 16.3671C8.28472 16.3566 8.20408 16.3422 8.1196 16.3422C7.97272 16.3422 7.83064 16.3623 7.69336 16.394L5.09848 11.5748C5.49976 11.2225 5.75992 10.7118 5.75992 10.1367C5.75992 9.07785 4.8988 8.21673 3.83992 8.21673C2.78104 8.21673 1.91992 9.07785 1.91992 10.1367C1.91992 11.1956 2.78104 12.0567 3.83992 12.0567C3.97912 12.0567 4.11256 12.0404 4.24312 12.0116L6.8428 16.8394C6.45112 17.1908 6.1996 17.6958 6.1996 18.2622C6.1996 19.321 7.06072 20.1822 8.1196 20.1822C9.17848 20.1822 10.0396 19.321 10.0396 18.2622C10.0396 17.6324 9.73048 17.0775 9.26008 16.7271L14.0351 7.58889C14.2127 7.64265 14.3961 7.68009 14.59 7.68009C14.7158 7.68009 14.8377 7.66569 14.9567 7.64265L17.495 11.1361C17.3625 11.3972 17.2799 11.6881 17.2799 12.0001C17.2799 13.059 18.141 13.9201 19.1999 13.9201C20.2588 13.9201 21.1199 13.059 21.1199 12.0001C21.1199 10.9412 20.2588 10.0801 19.1999 10.0801Z" fill="white"/>
<mask id="mask0" mask-type="alpha" maskUnits="userSpaceOnUse" x="1" y="3" width="21" height="18">
<path fill-rule="evenodd" clip-rule="evenodd" d="M19.1999 12.9601C18.67 12.9601 18.2399 12.529 18.2399 12.0001C18.2399 11.4711 18.67 11.0401 19.1999 11.0401C19.7298 11.0401 20.1599 11.4711 20.1599 12.0001C20.1599 12.529 19.7298 12.9601 19.1999 12.9601ZM13.63 5.76009C13.63 5.23113 14.0601 4.80009 14.59 4.80009C15.1199 4.80009 15.55 5.23113 15.55 5.76009C15.55 6.28905 15.1199 6.72009 14.59 6.72009C14.0601 6.72009 13.63 6.28905 13.63 5.76009ZM8.1196 19.2222C7.58968 19.2222 7.1596 18.7911 7.1596 18.2622C7.1596 17.7332 7.58968 17.3022 8.1196 17.3022C8.64952 17.3022 9.0796 17.7332 9.0796 18.2622C9.0796 18.7911 8.64952 19.2222 8.1196 19.2222ZM2.87992 10.1367C2.87992 9.60681 3.31 9.17673 3.83992 9.17673C4.36984 9.17673 4.79992 9.60681 4.79992 10.1367C4.79992 10.6657 4.36984 11.0967 3.83992 11.0967C3.31 11.0967 2.87992 10.6657 2.87992 10.1367ZM19.1999 10.0801C18.8102 10.0801 18.4482 10.1982 18.1449 10.3988L15.8303 7.21353C16.2431 6.86025 16.51 6.34377 16.51 5.76009C16.51 4.70121 15.6489 3.84009 14.59 3.84009C13.5321 3.84009 12.67 4.70121 12.67 5.76009C12.67 6.27753 12.8783 6.74505 13.2124 7.09065L8.36632 16.3671C8.28472 16.3566 8.20408 16.3422 8.1196 16.3422C7.97272 16.3422 7.83064 16.3623 7.69336 16.394L5.09848 11.5748C5.49976 11.2225 5.75992 10.7118 5.75992 10.1367C5.75992 9.07785 4.8988 8.21673 3.83992 8.21673C2.78104 8.21673 1.91992 9.07785 1.91992 10.1367C1.91992 11.1956 2.78104 12.0567 3.83992 12.0567C3.97912 12.0567 4.11256 12.0404 4.24312 12.0116L6.8428 16.8394C6.45112 17.1908 6.1996 17.6958 6.1996 18.2622C6.1996 19.321 7.06072 20.1822 8.1196 20.1822C9.17848 20.1822 10.0396 19.321 10.0396 18.2622C10.0396 17.6324 9.73048 17.0775 9.26008 16.7271L14.0351 7.58889C14.2127 7.64265 14.3961 7.68009 14.59 7.68009C14.7158 7.68009 14.8377 7.66569 14.9567 7.64265L17.495 11.1361C17.3625 11.3972 17.2799 11.6881 17.2799 12.0001C17.2799 13.059 18.141 13.9201 19.1999 13.9201C20.2588 13.9201 21.1199 13.059 21.1199 12.0001C21.1199 10.9412 20.2588 10.0801 19.1999 10.0801Z" fill="white"/>
</mask>
<g mask="url(#mask0)">
</g>
</svg>
